<?xml version="1.0" encoding="UTF-8"?>
<svg width="700pt" height="700pt" version="1.1" viewBox="0 0 700 700" xmlns="http://www.w3.org/2000/svg" xmlns:xlink="http://www.w3.org/1999/xlink">
 <defs>
  
 </defs>
 <g>
  <path d="m400.4 56c0 27.836-22.562 50.398-50.398 50.398s-50.398-22.562-50.398-50.398 22.562-50.398 50.398-50.398 50.398 22.562 50.398 50.398"/>
  <path d="m577.9 81.117c-4.8672-11.816-16.566-16.777-28.242-12.609l-153.14 54.691h-93.039l-153.15-54.695c-11.676-4.1602-23.375 0.79688-28.242 12.609-4.8672 11.816 0.050781 23.586 11.273 28.801l155.04 71.98 0.12109 137.3c0 5.6797 0.41016 16.895 2.0117 28.102l26.02 181.97c2.0391 15.418 15.344 26.566 30.727 24.98 15.383-1.5859 26.176-15.254 24.977-30.727l-10.035-181.16 52.949-24.07-19.527 78.102c-3.7539 15.004 5.3711 30.207 20.371 33.953 2.2773 0.57031 4.5625 0.83984 6.8164 0.83984 12.543 0 23.961-8.4961 27.145-21.211l33.602-134.4c2.6094-10.426-0.98438-21.426-9.2383-28.309-5.1562-4.3008-11.57-6.5117-18.047-6.4805-3.8867 0.015625-7.4102 0.99609-11.246 1.8633l-33.441 7.6094v-68.375l155.04-71.98c11.215-5.207 16.133-16.977 11.266-28.797z"/>
  <use x="70" y="644" xlink:href="#x"/>
  <use x="90.550781" y="644" xlink:href="#b"/>
  <use x="104.359375" y="644" xlink:href="#a"/>
  <use x="123.347656" y="644" xlink:href="#j"/>
  <use x="142.242188" y="644" xlink:href="#d"/>
  <use x="155.628906" y="644" xlink:href="#a"/>
  <use x="174.617188" y="644" xlink:href="#i"/>
  <use x="204.410156" y="644" xlink:href="#h"/>
  <use x="224.453125" y="644" xlink:href="#g"/>
  <use x="252.453125" y="644" xlink:href="#f"/>
  <use x="262.867188" y="644" xlink:href="#a"/>
  <use x="281.859375" y="644" xlink:href="#c"/>
  <use x="301.792969" y="644" xlink:href="#w"/>
  <use x="328.207031" y="644" xlink:href="#v"/>
  <use x="347.304688" y="644" xlink:href="#u"/>
  <use x="366.203125" y="644" xlink:href="#b"/>
  <use x="380.007812" y="644" xlink:href="#c"/>
  <use x="399.945312" y="644" xlink:href="#t"/>
  <use x="409.539062" y="644" xlink:href="#c"/>
  <use x="429.476562" y="644" xlink:href="#s"/>
  <use x="70" y="672" xlink:href="#r"/>
  <use x="82.183594" y="672" xlink:href="#b"/>
  <use x="95.992188" y="672" xlink:href="#e"/>
  <use x="115.226562" y="672" xlink:href="#q"/>
  <use x="154.152344" y="672" xlink:href="#d"/>
  <use x="167.535156" y="672" xlink:href="#p"/>
  <use x="187.46875" y="672" xlink:href="#a"/>
  <use x="216.207031" y="672" xlink:href="#o"/>
  <use x="239.640625" y="672" xlink:href="#e"/>
  <use x="258.878906" y="672" xlink:href="#n"/>
  <use x="278.8125" y="672" xlink:href="#c"/>
  <use x="308.492188" y="672" xlink:href="#m"/>
  <use x="329.015625" y="672" xlink:href="#b"/>
  <use x="342.820312" y="672" xlink:href="#e"/>
  <use x="362.058594" y="672" xlink:href="#l"/>
  <use x="371.65625" y="672" xlink:href="#a"/>
  <use x="390.648438" y="672" xlink:href="#k"/>
  <use x="407.242188" y="672" xlink:href="#d"/>
 </g>
</svg>
