<?xml version="1.0" encoding="UTF-8"?>
<svg width="700pt" height="700pt" version="1.1" viewBox="0 0 700 700" xmlns="http://www.w3.org/2000/svg" xmlns:xlink="http://www.w3.org/1999/xlink">
 <defs>
  
 </defs>
 <g>
  <path d="m400.95 21.285s-19.254 83.648 28.879 158.41c48.117 74.762 212.44 222.08-19.992 359.02 0 0 49.223-69.957 24.426-117.7-24.797-47.746-78.086-83.277-69.215-158.04 0 0-70.309 29.25-39.227 161.73 0 0-39.598-14.43-56.266-53.477 0 0-24.613 76.609 20.547 166.19 0 0-238.71-113.84-46.27-334.96 0 0 4.0664 72.172 32.574 92.164 0 0-47.008-195.42 124.54-273.34z" fill-rule="evenodd"/>
  <use x="70" y="585.199219" xlink:href="#x"/>
  <use x="76.164062" y="585.199219" xlink:href="#c"/>
  <use x="80.308594" y="585.199219" xlink:href="#a"/>
  <use x="86.003906" y="585.199219" xlink:href="#j"/>
  <use x="91.671875" y="585.199219" xlink:href="#b"/>
  <use x="95.6875" y="585.199219" xlink:href="#a"/>
  <use x="101.386719" y="585.199219" xlink:href="#i"/>
  <use x="110.324219" y="585.199219" xlink:href="#h"/>
  <use x="116.335938" y="585.199219" xlink:href="#g"/>
  <use x="124.734375" y="585.199219" xlink:href="#f"/>
  <use x="130.820312" y="585.199219" xlink:href="#w"/>
  <use x="137.320312" y="585.199219" xlink:href="#e"/>
  <use x="144.351562" y="585.199219" xlink:href="#v"/>
  <use x="151.324219" y="585.199219" xlink:href="#u"/>
  <use x="157.371094" y="585.199219" xlink:href="#t"/>
  <use x="163.839844" y="585.199219" xlink:href="#s"/>
  <use x="70" y="593.601562" xlink:href="#r"/>
  <use x="73.65625" y="593.601562" xlink:href="#c"/>
  <use x="77.796875" y="593.601562" xlink:href="#d"/>
  <use x="83.566406" y="593.601562" xlink:href="#q"/>
  <use x="95.246094" y="593.601562" xlink:href="#b"/>
  <use x="99.261719" y="593.601562" xlink:href="#p"/>
  <use x="105.242188" y="593.601562" xlink:href="#a"/>
  <use x="113.863281" y="593.601562" xlink:href="#e"/>
  <use x="120.894531" y="593.601562" xlink:href="#d"/>
  <use x="126.664062" y="593.601562" xlink:href="#o"/>
  <use x="132.644531" y="593.601562" xlink:href="#n"/>
  <use x="141.546875" y="593.601562" xlink:href="#m"/>
  <use x="147.703125" y="593.601562" xlink:href="#c"/>
  <use x="151.847656" y="593.601562" xlink:href="#d"/>
  <use x="157.617187" y="593.601562" xlink:href="#l"/>
  <use x="160.496094" y="593.601562" xlink:href="#a"/>
  <use x="166.195312" y="593.601562" xlink:href="#k"/>
  <use x="171.175781" y="593.601562" xlink:href="#b"/>
 </g>
</svg>
