<?xml version="1.0" encoding="UTF-8"?>
<svg width="700pt" height="700pt" version="1.1" viewBox="0 0 700 700" xmlns="http://www.w3.org/2000/svg" xmlns:xlink="http://www.w3.org/1999/xlink">
 <defs>
  
 </defs>
 <g>
  <path d="m534.5 472.97c-44.086 27.074-107.89 41.383-184.5 41.383s-140.41-14.309-184.5-41.383c-48.797-29.961-73.539-75.152-73.539-134.31 0-63.922 28.492-136.1 76.215-193.07 24.168-28.852 52.645-52.688 82.359-68.934 32.266-17.641 65.73-26.586 99.465-26.586 33.73 0 67.199 8.9453 99.465 26.586 29.711 16.246 58.191 40.082 82.359 68.934 47.723 56.973 76.215 129.15 76.215 193.07 0 59.16-24.742 104.35-73.539 134.31m14.125-341.59c-26.277-31.375-56.109-56.309-88.66-74.105-35.527-19.426-72.523-29.273-109.96-29.273s-74.438 9.8477-109.96 29.273c-32.551 17.797-62.383 42.73-88.664 74.105-50.949 60.828-81.371 138.32-81.371 207.28 0 125.68 102.05 197.75 280 197.75 177.94 0 280-72.078 280-197.75 0-68.961-30.418-146.45-81.375-207.28m-84.426 157.96h-228.48c-6.0625 0-10.98 4.9414-10.98 11.031 0 69.363 56.176 125.79 125.22 125.79s125.22-56.43 125.22-125.79c0-6.0898-4.918-11.031-10.98-11.031m-73.426-25.074c6.0664 0 10.98-4.9375 10.98-11.027 0-10.266 8.3164-18.617 18.535-18.617s18.531 8.3516 18.531 18.617c0 6.0898 4.918 11.027 10.98 11.027 6.0664 0 10.98-4.9375 10.98-11.027 0-22.43-18.164-40.68-40.492-40.68-22.328 0-40.496 18.25-40.496 40.68 0 6.0898 4.918 11.027 10.98 11.027m-139.17 0c6.0625 0 10.98-4.9375 10.98-11.027 0-10.266 8.3125-18.617 18.531-18.617 10.223 0 18.535 8.3516 18.535 18.617 0 6.0898 4.918 11.027 10.98 11.027s10.98-4.9375 10.98-11.027c0-22.43-18.164-40.68-40.496-40.68-22.328 0-40.492 18.25-40.492 40.68 0 6.0898 4.918 11.027 10.98 11.027" fill-rule="evenodd"/>
  <use x="70" y="644" xlink:href="#s"/>
  <use x="90.550781" y="644" xlink:href="#d"/>
  <use x="104.359375" y="644" xlink:href="#a"/>
  <use x="123.347656" y="644" xlink:href="#j"/>
  <use x="142.242188" y="644" xlink:href="#c"/>
  <use x="155.628906" y="644" xlink:href="#a"/>
  <use x="174.617188" y="644" xlink:href="#i"/>
  <use x="204.410156" y="644" xlink:href="#h"/>
  <use x="224.453125" y="644" xlink:href="#g"/>
  <use x="252.453125" y="644" xlink:href="#f"/>
  <use x="274.121094" y="644" xlink:href="#b"/>
  <use x="293.359375" y="644" xlink:href="#e"/>
  <use x="322.53125" y="644" xlink:href="#f"/>
  <use x="344.203125" y="644" xlink:href="#e"/>
  <use x="70" y="672" xlink:href="#r"/>
  <use x="82.183594" y="672" xlink:href="#d"/>
  <use x="95.992188" y="672" xlink:href="#b"/>
  <use x="115.226562" y="672" xlink:href="#e"/>
  <use x="154.152344" y="672" xlink:href="#c"/>
  <use x="167.535156" y="672" xlink:href="#q"/>
  <use x="187.46875" y="672" xlink:href="#a"/>
  <use x="216.207031" y="672" xlink:href="#p"/>
  <use x="239.640625" y="672" xlink:href="#b"/>
  <use x="258.878906" y="672" xlink:href="#o"/>
  <use x="278.8125" y="672" xlink:href="#n"/>
  <use x="308.492188" y="672" xlink:href="#m"/>
  <use x="329.015625" y="672" xlink:href="#d"/>
  <use x="342.820312" y="672" xlink:href="#b"/>
  <use x="362.058594" y="672" xlink:href="#l"/>
  <use x="371.65625" y="672" xlink:href="#a"/>
  <use x="390.648438" y="672" xlink:href="#k"/>
  <use x="407.242188" y="672" xlink:href="#c"/>
 </g>
</svg>
