<?xml version="1.0" encoding="UTF-8"?>
<svg width="700pt" height="700pt" version="1.1" viewBox="0 0 700 700" xmlns="http://www.w3.org/2000/svg" xmlns:xlink="http://www.w3.org/1999/xlink">
 <defs>
  
 </defs>
 <path d="m558.37 338.12-0.74609-1.8438c-17.656-44.23-63.129-151.51-103.83-192.39-5.293-5.3242-9.9414-10.062-14.113-14.312-32.492-33.113-37.48-38.199-86.508-55.188-23.195-8.0039-34.797-11.91-45.152-13.352-22.922-3.0508-44.766 53.652-44.922 54.191-1.6016 5.3086-4.418 21.863 1.6562 34.402 5.5938 11.766 13.777 15.691 20.996 19.156l0.78516 0.375c7.1562 4.7656 15.883 4.6641 27.402-0.30859 5.8242-2.5195 9.3477-4.9219 11.609-6.5859 0.83984 0.29688 1.6953 0.60547 2.5703 0.91797 6.6602 2.3906 14.203 5.1016 21.953 5.1016 6.0586 0.10547 10.129-1.7578 12.801-2.9336 1.5508-0.6875 1.9336-0.82422 2.4141-0.82812 6.3047 1.6445 25.316 15.047 27.211 24.199 2.207 11.066 2.9062 67.219 2.832 102.27l-0.003906 1.5508 0.42188 1.5c0.33203 1.1641 0.64453 2.2891 0.95703 3.3828-5.3711-2.5273-11.129-4.4648-16.902-5.0352-19.965-1.8945-38.488-2.1953-62.52 13.48-1.4688 0.95312-3.6289 2.8164-6.2148 5.2695-14.738-12.98-52.656-39.324-102.21-21.066-20.664 7.6836-37.379 20.742-49.676 38.82-17.527 25.703-22.863 58.309-20.41 77.699 1.2812 10.277 4.918 30.277 14.836 48.805v0.003906c14.43 26.965 37.273 41.77 66.059 42.816 17.891 0.65625 30.918 0.89062 40.5 0.89062 17.359 0 23.426-0.77344 26.68-1.1875l1.1719-0.13281c6.8711-0.81641 20.453-1.2031 34.828-1.6133 23.93-0.68359 48.676-1.3828 60.105-4.25 26.438-6.457 114.71-40.977 171.62-112.43 11.422-14.27 6.5938-34.742 3.8008-41.367zm-21.309 27.383c-62.184 78.074-158.48 104.42-159.5 104.67-9.1289 2.2852-34.766 3.0117-55.363 3.6055-15.539 0.4375-28.965 0.81641-36.664 1.7422l-1.5273 0.17969c-4.1172 0.52734-15.047 1.9258-63.527 0.125-20.961-0.76172-36.379-10.898-47.129-31l-9.8789 5.2812 9.8711-5.2852c-8.2109-15.328-11.266-32.277-12.363-41.027-1.625-12.82 1.4844-39.984 16.688-62.281l-9.25-6.3125 9.2578 6.3008c9.6367-14.156 22.746-24.398 38.941-30.418 36.43-13.422 65.066 4.6758 77.555 15.055l-15.812 20.043 17.18 14.352c13.48-15.242 30.297-33.305 33.93-35.887 18.109-11.816 30.855-11.609 48.148-9.9688 10.289 1.0312 23.973 11.895 29.125 15.98 3.0703 2.4414 10.23 8.1211 17.387 1.9141l6.9062-6.4023-4.4805-7.6836c-1.2656-3-5.4375-16.93-8.8555-29.023 0.015625-14.398-0.066407-89.066-3.2812-105.21-4.5547-22.055-36.344-41.395-47.359-42.086-6.1992-0.42578-10.457 1.4336-13.242 2.6641-1.8633 0.82422-2.4062 1.043-3.6914 1.043h-0.042969c-3.8906 0-9.4805-2.0039-14.422-3.7812-1.5898-0.57031-3.1406-1.125-4.7227-1.6523-8.8086-2.8711-13.68 0.011719-17.926 3.1992-1.7422 1.3086-3.7188 2.793-7.9922 4.6406-3.707 1.6016-5.7188 1.8984-6.5 1.9492-0.57031-0.375-1.0859-0.67188-1.6172-0.93359l-1.4766-0.71094c-6.1836-2.9727-8.2695-3.9688-10.5-8.6641-2.3906-4.9297-1.5352-14.492-0.44141-18.129 2.5938-7.5156 16.07-32.602 22.734-38.207 8.0547 1.4844 19.281 5.2852 38.613 11.961 44.043 15.266 46.594 17.863 77.84 49.707 4.1992 4.2773 8.8867 9.0547 14.223 14.426 38.848 39.02 85.523 151.39 98.902 184.91l0.87891 2.1914c1.7109 3.9805 3.0195 14.188-0.61328 18.723z"/>
 
</svg>
