<?xml version="1.0" encoding="UTF-8"?><svg id="Capa_2" xmlns="http://www.w3.org/2000/svg" viewBox="0 0 164.91 291.77"><defs><style>.cls-1{fill:#fff;}.cls-2{fill:#f7f7f7;}</style></defs><g id="Logo">
<path class="cls-1" d="M31.59,177.6H1.83c-1.06,0-1.83,.77-1.83,1.83v47.09c0,1.06,.77,1.83,1.83,1.83h3.14c1.06,0,1.83-.77,1.83-1.83v-20.6H23.9c1.06,0,1.83-.77,1.83-1.83v-2.51c0-1.06-.77-1.83-1.83-1.83H6.8v-15.98H31.59c1.06,0,1.83-.77,1.83-1.83v-2.52c0-1.06-.77-1.83-1.83-1.83Z"/>
<path class="cls-1" d="M49.17,177.6h3.14c1.01,0,1.83,.82,1.83,1.83v47.09c0,1.01-.82,1.83-1.83,1.83h-3.14c-1.01,0-1.83-.82-1.83-1.83v-47.09c0-1.01,.82-1.83,1.83-1.83Z"/>
<path class="cls-1" d="M85.57,226.52v-42.68h14.08c1.06,0,1.83-.77,1.83-1.83v-2.59c0-1.06-.77-1.83-1.83-1.83h-34.41c-1.06,0-1.83,.77-1.83,1.83v2.59c0,1.06,.77,1.83,1.83,1.83h13.53v42.68c0,1.06,.77,1.83,1.83,1.83h3.14c1.06,0,1.83-.77,1.83-1.83Z"/>
<path class="cls-1" d="M32.05,241.1H1.85c-1.07,0-1.85,.77-1.85,1.82v47.03c0,1.06,.78,1.82,1.85,1.82h3.19c1.07,0,1.85-.77,1.85-1.82v-20.57H24.25c1.07,0,1.85-.77,1.85-1.82v-2.51c0-1.06-.78-1.82-1.85-1.82H6.89v-15.96h25.15c1.07,0,1.85-.77,1.85-1.82v-2.51c0-1.06-.78-1.82-1.85-1.82Zm0,4.33H6.32c-.73,0-1.29,.54-1.29,1.27v17.09c0,.72,.55,1.27,1.29,1.27H24.24s0,2.49,0,2.49H6.32c-.73,0-1.29,.54-1.29,1.27v21.13s-3.17,0-3.17,0v-47.02s30.18,0,30.18,0l.07,2.5s-.02,0-.06,0Z"/>
<path class="cls-1" d="M74.86,285.61h-24.16v-42.69c0-1.06-.78-1.82-1.85-1.82h-3.19c-1.07,0-1.85,.77-1.85,1.82v47.03c0,1.06,.78,1.82,1.85,1.82h29.2c1.07,0,1.85-.77,1.85-1.82v-2.51c0-1.06-.78-1.82-1.85-1.82Zm-29.19,4.39s0-.02,0-.06v-47.02s3.17,0,3.17,0v43.26c0,.72,.55,1.27,1.29,1.27h24.73s0,2.49,0,2.49l-29.19,.07Z"/>
<path class="cls-1" d="M117.03,241.1h-3.4c-.85,0-1.52,.4-1.88,1.1l-11.3,20.01-11.22-19.97c-.37-.73-1.04-1.14-1.9-1.14h-3.4c-.67,0-1.22,.28-1.51,.77-.3,.49-.27,1.12,.06,1.71l14.51,25.85s.04,.08,.04,.01v20.44c0,1.06,.78,1.82,1.85,1.82h3.19c1.07,0,1.85-.77,1.85-1.82l-.02-20.33s.04-.08,.04-.09l14.53-25.88c.34-.59,.36-1.22,.06-1.71-.29-.49-.84-.77-1.51-.77Zm-14.73,27.51c-.1,.19-.24,.47-.24,.83v20.43s-3.17,.07-3.17,.07c0,0,0-.02,0-.06v-20.44c0-.36-.14-.64-.26-.86l-14.38-25.64h3.08c.17,0,.19,.04,.25,.16l11.88,21.14c.33,.49,.76,.56,.99,.56s.65-.07,1.03-.63l11.93-21.11c.04-.09,.06-.12,.23-.12h3.09s-14.41,25.68-14.41,25.68Z"/>
<path class="cls-1" d="M159.42,255.41c0-5.92-4.17-10.06-10.15-10.06h-13.11c-.73,0-1.29,.54-1.29,1.27v17.44c0,.72,.55,1.27,1.29,1.27h13.11c5.97,0,10.15-4.08,10.15-9.92Zm-10.15,8.08h-12.54v-16.31h12.54c4.95,0,8.28,3.31,8.28,8.22s-3.33,8.08-8.28,8.08Z"/>
<path class="cls-1" d="M164.71,289.41l-10.23-20.67c6.13-1.73,9.9-6.8,9.9-13.4,0-8.56-5.84-14.31-14.54-14.31h-18.15c-1.07,0-1.85,.77-1.85,1.82v47.1c0,1.06,.78,1.82,1.85,1.82h3.19c1.07,0,1.85-.77,1.85-1.82v-20.64h10.96l10.23,21.25v.02c.39,.74,1.14,1.2,1.97,1.2h3.26c.91,0,1.34-.44,1.51-.71,.17-.26,.41-.82,.04-1.65Zm-4.81,.53c-.18,0-.27-.13-.3-.19l-10.35-21.5c-.23-.46-.76-.79-1.26-.79h-11.84c-.73,0-1.29,.54-1.29,1.27v21.2s-3.17,0-3.17,0v-47.09s18.14,0,18.14,0c7.58,0,12.68,5.02,12.68,12.48,0,6.06-3.44,10.47-9.22,11.81-.47,.12-.71,.38-.82,.58-.25,.44-.1,.87,0,1.13l10.42,21.08h-2.99Z"/>
<path class="cls-2" id="bota" d="M19.13,113.05c6.63-8.85,12.95-17.91,18.25-27.63,3.58-6.56,6.47-13.35,8.24-20.71,1.49-6.19-.24-12.39-1.32-14.4-.97,.59-1.8,1.24-2.75,1.62-1.34,.53-1.82-.65-2.34-1.51-.68-1.13-1.93-2.48-1.7-3.45,.27-1.16,1.83-2.02,2.91-3.09-.08-.15-.19-.44-.37-.68-3.28-4.62-6.49-9.29-9.84-13.85-1.77-2.41-4.25-3.15-3.46-4.93,.78-1.75,4.51-1.53,6.2-1.71,.22-.02,.45-.04,.67-.05,2-.08,4.01-.11,6.01-.21,5.18-.25,9-2.75,11.25-7.36,1.66-3.39,5.05-8.35,6.43-11.86,.66-1.67,1.65-2.93,3.48-3.18,1.81-.24,3.44,.73,3.69,2.35,.94,5.96,2.85,9.47,5.41,13.44,5.58,8.65,12.88,19.7,21.14,24.88,4.72,3.34,10.12,6.68,13.29,11.41,5.03,7.53,4.32,10.68,2.12,12.49-2.41,1.98-11.11-7.93-19.06-.76-12.03,10.85-19.29,29.27-29.92,39.71-.64,.63-1.3,1.23-1.95,1.83,.19-.16,.37-.3,.56-.46,11.3-9.73,19.93-27.39,32.45-37.67,8.78-7.21,11.98,5.43,21.95,1.23,.87-.36,1.71,.6,1.22,1.4-4.46,7.36-22.96,17.93-36.41,27.35,17.77-9.36,37.7-11.64,53.43-6.12,.17-.15,.35-.28,.55-.4,1.59-.92,3.63-.37,4.55,1.22,.92,1.59,.37,3.63-1.22,4.55-.2,.12-.41,.21-.62,.28-3.25,17.25-16.32,34.23-34.77,44.88-18.45,10.65-39.69,13.48-56.25,7.67-.17,.15-.35,.28-.55,.4-1.59,.92-3.63,.37-4.55-1.22-.92-1.59-.37-3.63,1.22-4.55,.2-.12,.41-.21,.62-.28,2.25-11.96,9.23-23.79,19.45-33.47-18.74,12.33-27.38,13.29-33.79,13.93-.63,.06-1.22-.33-1.07-1.1,0,0,.74-2.6,.33-3.13l-1.37-1.62c-.15-.18-.4-.2-.6-.09-.44,.26-.68,.13-.81-.05-1.08-1.51-1.99-3.37-.7-5.09Zm49.81-51.69c1.79,2.67,5.4,3.39,8.07,1.61,2.67-1.79,3.39-5.4,1.61-8.08-1.79-2.67-5.4-3.39-8.07-1.61-2.67,1.79-3.39,5.4-1.61,8.08Zm-27.09,86.63c15.74,5.15,36.32,1.12,53.84-8.99,17.52-10.12,31.3-25.93,34.71-42.13-.82-.14-1.58-.58-2.11-1.29l-1.55,.89c.42,1.1,0,2.37-1.06,2.97-.79,.46-1.73,.41-2.47-.03l-75.56,43.62c.01,.86-.41,1.69-1.21,2.15-1.05,.61-2.36,.34-3.1-.57l-1.55,.89c.35,.81,.35,1.69,.06,2.47Zm-2.56-4.44c.82,.14,1.58,.58,2.11,1.29l1.55-.89c-.42-1.1,0-2.37,1.06-2.97,.79-.46,1.73-.41,2.47,.03l75.56-43.63c-.01-.86,.41-1.69,1.21-2.15,1.05-.61,2.36-.34,3.1,.57l1.55-.89c-.35-.81-.35-1.69-.06-2.47-15.73-5.15-36.32-1.12-53.84,8.99-17.52,10.11-31.3,25.93-34.71,42.13Zm-3.23-36.17c-.67-.7-2.92,.37-5.02,2.39-2.1,2.02-3.25,4.22-2.58,4.92,.67,.7,2.92-.37,5.02-2.39,2.1-2.02,3.25-4.22,2.58-4.92Z"/>
<path class="cls-2" id="arco" d="M127.64,135.14c-1.01-1.41-2.11-2.79-3.28-4.13-.22,.35-2.15,2.95-2.24,3.07,7.56,8.18,12.3,17.96,12.47,29.05,.28,19.03-9.92,37.5-28.07,48.24-.18,.11-.37-.13-.22-.28,11.23-10.7,18.7-26.48,16.73-40.49-1.33-9.49-7.33-19.07-15.33-24.77,0,0,0,.01-.01,.02-.34,.34-3.19,1.98-4.28,2.57,9.79,4.71,15.27,12.56,16.72,22.89,2.05,14.58-4.69,30.59-17.22,41.03-.42,.35-.54,.96-.27,1.44,.3,.53,.97,.74,1.52,.46,20.32-10.64,33.19-30.62,32.88-51.17-.15-9.88-3.4-19.53-9.41-27.91Z"/>
</g></svg>