<?xml version="1.0" encoding="UTF-8"?><svg id="Capa_2" xmlns="http://www.w3.org/2000/svg" viewBox="0 175 164.91 150"><defs><style>.cls-1{fill:#fff;}.cls-2{fill:#f7f7f7;}</style></defs><g id="Logo">
<path class="cls-1" d="M31.59,177.6H1.83c-1.06,0-1.83,.77-1.83,1.83v47.09c0,1.06,.77,1.83,1.83,1.83h3.14c1.06,0,1.83-.77,1.83-1.83v-20.6H23.9c1.06,0,1.83-.77,1.83-1.83v-2.51c0-1.06-.77-1.83-1.83-1.83H6.8v-15.98H31.59c1.06,0,1.83-.77,1.83-1.83v-2.52c0-1.06-.77-1.83-1.83-1.83Z"/>
<path class="cls-1" d="M49.17,177.6h3.14c1.01,0,1.83,.82,1.83,1.83v47.09c0,1.01-.82,1.83-1.83,1.83h-3.14c-1.01,0-1.83-.82-1.83-1.83v-47.09c0-1.01,.82-1.83,1.83-1.83Z"/>
<path class="cls-1" d="M85.57,226.52v-42.68h14.08c1.06,0,1.83-.77,1.83-1.83v-2.59c0-1.06-.77-1.83-1.83-1.83h-34.41c-1.06,0-1.83,.77-1.83,1.83v2.59c0,1.06,.77,1.83,1.83,1.83h13.53v42.68c0,1.06,.77,1.83,1.83,1.83h3.14c1.06,0,1.83-.77,1.83-1.83Z"/>
<path class="cls-1" d="M32.05,241.1H1.85c-1.07,0-1.85,.77-1.85,1.82v47.03c0,1.06,.78,1.82,1.85,1.82h3.19c1.07,0,1.85-.77,1.85-1.82v-20.57H24.25c1.07,0,1.85-.77,1.85-1.82v-2.51c0-1.06-.78-1.82-1.85-1.82H6.89v-15.96h25.15c1.07,0,1.85-.77,1.85-1.82v-2.51c0-1.06-.78-1.82-1.85-1.82Zm0,4.33H6.32c-.73,0-1.29,.54-1.29,1.27v17.09c0,.72,.55,1.27,1.29,1.27H24.24s0,2.49,0,2.49H6.32c-.73,0-1.29,.54-1.29,1.27v21.13s-3.17,0-3.17,0v-47.02s30.18,0,30.18,0l.07,2.5s-.02,0-.06,0Z"/>
<path class="cls-1" d="M74.86,285.61h-24.16v-42.69c0-1.06-.78-1.82-1.85-1.82h-3.19c-1.07,0-1.85,.77-1.85,1.82v47.03c0,1.06,.78,1.82,1.85,1.82h29.2c1.07,0,1.85-.77,1.85-1.82v-2.51c0-1.06-.78-1.82-1.85-1.82Zm-29.19,4.39s0-.02,0-.06v-47.02s3.17,0,3.17,0v43.26c0,.72,.55,1.27,1.29,1.27h24.73s0,2.49,0,2.49l-29.19,.07Z"/>
<path class="cls-1" d="M117.03,241.1h-3.4c-.85,0-1.52,.4-1.88,1.1l-11.3,20.01-11.22-19.97c-.37-.73-1.04-1.14-1.9-1.14h-3.4c-.67,0-1.22,.28-1.51,.77-.3,.49-.27,1.12,.06,1.71l14.51,25.85s.04,.08,.04,.01v20.44c0,1.06,.78,1.82,1.85,1.82h3.19c1.07,0,1.85-.77,1.85-1.82l-.02-20.33s.04-.08,.04-.09l14.53-25.88c.34-.59,.36-1.22,.06-1.71-.29-.49-.84-.77-1.51-.77Zm-14.73,27.51c-.1,.19-.24,.47-.24,.83v20.43s-3.17,.07-3.17,.07c0,0,0-.02,0-.06v-20.44c0-.36-.14-.64-.26-.86l-14.38-25.64h3.08c.17,0,.19,.04,.25,.16l11.88,21.14c.33,.49,.76,.56,.99,.56s.65-.07,1.03-.63l11.93-21.11c.04-.09,.06-.12,.23-.12h3.09s-14.41,25.68-14.41,25.68Z"/>
<path class="cls-1" d="M159.42,255.41c0-5.92-4.17-10.06-10.15-10.06h-13.11c-.73,0-1.29,.54-1.29,1.27v17.44c0,.72,.55,1.27,1.29,1.27h13.11c5.97,0,10.15-4.08,10.15-9.92Zm-10.15,8.08h-12.54v-16.31h12.54c4.95,0,8.28,3.31,8.28,8.22s-3.33,8.08-8.28,8.08Z"/>
<path class="cls-1" d="M164.71,289.41l-10.23-20.67c6.13-1.73,9.9-6.8,9.9-13.4,0-8.56-5.84-14.31-14.54-14.31h-18.15c-1.07,0-1.85,.77-1.85,1.82v47.1c0,1.06,.78,1.82,1.85,1.82h3.19c1.07,0,1.85-.77,1.85-1.82v-20.64h10.96l10.23,21.25v.02c.39,.74,1.14,1.2,1.97,1.2h3.26c.91,0,1.34-.44,1.51-.71,.17-.26,.41-.82,.04-1.65Zm-4.81,.53c-.18,0-.27-.13-.3-.19l-10.35-21.5c-.23-.46-.76-.79-1.26-.79h-11.84c-.73,0-1.29,.54-1.29,1.27v21.2s-3.17,0-3.17,0v-47.09s18.14,0,18.14,0c7.58,0,12.68,5.02,12.68,12.48,0,6.06-3.44,10.47-9.22,11.81-.47,.12-.71,.38-.82,.58-.25,.44-.1,.87,0,1.13l10.42,21.08h-2.99Z"/>
</g></svg>